Coordinates
version=1
nRows=32
nColumns=12
inDegrees=yes

Units are S.I. units (second, meters, Newtons, ...)
Angles are in degrees

endheader
time	SC_y	SC_z	SC_x	AC_y	AC_z	AC_x	GH_y	GH_z	GH_yy	EL_x	PS_y
       0.0              -36.84          11.78          62.86          69.29          2.906         -3.699          102.0          75.44          142.6          30.12          150.6
    0.0417              -36.84          11.78          62.86          69.28          2.904         -3.699          101.9          75.44          142.5          30.13          150.6
    0.0834              -36.85          11.78          62.86          69.27          2.902         -3.699          101.9          75.44          142.5          30.15          150.6
    0.1251              -36.85          11.79          62.87          69.27            2.9         -3.699          101.9          75.43          142.5          30.17          150.6
    0.1668              -36.85          11.79          62.87          69.26          2.898         -3.699          101.8          75.43          142.4          30.18          150.6
    0.2085              -36.85           11.8          62.87          69.25          2.895           -3.7          101.8          75.43          142.4           30.2          150.5
    0.2502              -36.85           11.8          62.87          69.25          2.893           -3.7          101.7          75.42          142.4          30.22          150.5
    0.2919              -36.85          11.81          62.88          69.24           2.89           -3.7          101.7          75.42          142.3          30.24          150.5
    0.3336              -36.85          11.81          62.88          69.23          2.888           -3.7          101.7          75.41          142.3          30.26          150.5
    0.3753              -36.85          11.82          62.89          69.22          2.885           -3.7          101.6          75.41          142.2          30.29          150.5
     0.417              -36.85          11.83          62.89          69.21          2.881         -3.701          101.5           75.4          142.2          30.31          150.5
    0.4587              -36.86          11.83          62.89           69.2          2.878         -3.701          101.5           75.4          142.2          30.34          150.5
    0.5004              -36.86          11.84           62.9          69.19          2.874         -3.701          101.4          75.39          142.1          30.37          150.5
    0.5421              -36.86          11.85          62.91          69.17           2.87         -3.701          101.3          75.39          142.0           30.4          150.5
    0.5838              -36.86          11.86          62.91          69.16          2.866         -3.702          101.3          75.38          142.0          30.43          150.5
    0.6255              -36.86          11.87          62.92          69.14          2.861         -3.702          101.2          75.37          141.9          30.47          150.5
    0.6672              -36.87          11.88          62.92          69.13          2.856         -3.702          101.1          75.37          141.8          30.51          150.5
    0.7089              -36.87          11.89          62.93          69.11           2.85         -3.703          101.0          75.36          141.7          30.55          150.5
    0.7506              -36.87           11.9          62.94          69.09          2.844         -3.703          100.9          75.35          141.7           30.6          150.5
    0.7923              -36.87          11.92          62.95          69.07          2.837         -3.703          100.8          75.34          141.6          30.66          150.4
     0.834              -36.88          11.93          62.96          69.05           2.83         -3.704          100.6          75.33          141.5          30.71          150.4
    0.8757              -36.88          11.95          62.97          69.02          2.822         -3.704          100.5          75.31          141.3          30.78          150.4
    0.9174              -36.89          11.97          62.98          68.99          2.813         -3.705          100.3           75.3          141.2          30.85          150.4
    0.9591              -36.89          11.99          62.99          68.96          2.803         -3.706          100.1          75.29          141.1          30.92          150.4
     1.001               -36.9          12.01          63.01          68.92          2.792         -3.706          99.94          75.27          140.9          31.01          150.4
     1.042               -36.9          12.04          63.03          68.89           2.78         -3.707          99.72          75.25          140.7          31.11          150.3
     1.084              -36.91          12.06          63.04          68.84          2.766         -3.708          99.48          75.23          140.5          31.22          150.3
     1.126              -36.92           12.1          63.06          68.79           2.75         -3.709           99.2          75.21          140.3          31.34          150.3
     1.168              -36.92          12.13          63.09          68.74          2.733          -3.71          98.89          75.18          140.0          31.48          150.3
     1.209              -36.93          12.17          63.11          68.67          2.713         -3.712          98.53          75.15          139.7          31.63          150.2
     1.251              -36.94          12.22          63.14           68.6           2.69         -3.713          98.12          75.11          139.4          31.81          150.2
     1.293              -36.96          12.27          63.18          68.52          2.664         -3.715          97.66          75.07          139.0          32.01          150.1
